<mxfile host="app.diagrams.net" modified="2023-04-23T16:52:29.783Z" agent="Mozilla/5.0 (X11; Linux x86_64) AppleWebKit/537.36 (KHTML, like Gecko) Chrome/112.0.0.0 Safari/537.36 Edg/112.0.1722.39" version="21.2.1" etag="7uvV33Hp8PF9jyLQSeLK" type="github">
  <diagram name="Page-1" id="ya3rEFrCZFfOFK9FFIAR">
    <mxGraphModel>
      <root>
        <mxCell id="0" />
        <mxCell id="1" parent="0" />
      </root>
    </mxGraphModel>
  </diagram>
</mxfile>
